<svg width="14" height="14" viewBox="0 0 14 14" fill="none" xmlns="http://www.w3.org/2000/svg">
<path d="M9.55199 1.89574C10.2283 1.89776 10.8763 2.16731 11.3545 2.64551C11.8327 3.12372 12.1022 3.77173 12.1043 4.44801V9.55199C12.1022 10.2283 11.8327 10.8763 11.3545 11.3545C10.8763 11.8327 10.2283 12.1022 9.55199 12.1043H4.44801C3.77173 12.1022 3.12372 11.8327 2.64551 11.3545C2.16731 10.8763 1.89776 10.2283 1.89574 9.55199V4.44801C1.89776 3.77173 2.16731 3.12372 2.64551 2.64551C3.12372 2.16731 3.77173 1.89776 4.44801 1.89574H9.55199ZM9.55199 0.875H4.44801C2.48281 0.875 0.875 2.48281 0.875 4.44801V9.55199C0.875 11.5172 2.48281 13.125 4.44801 13.125H9.55199C11.5172 13.125 13.125 11.5172 13.125 9.55199V4.44801C13.125 2.48281 11.5172 0.875 9.55199 0.875Z" fill="white"/>
<path d="M10.3176 4.44825C10.1662 4.44825 10.0182 4.40334 9.89227 4.31922C9.76636 4.23509 9.66823 4.11551 9.61028 3.97561C9.55233 3.83571 9.53717 3.68177 9.56671 3.53325C9.59626 3.38474 9.66917 3.24831 9.77625 3.14124C9.88332 3.03416 10.0197 2.96125 10.1683 2.9317C10.3168 2.90216 10.4707 2.91732 10.6106 2.97527C10.7505 3.03322 10.8701 3.13135 10.9542 3.25726C11.0384 3.38317 11.0833 3.53119 11.0833 3.68262C11.0835 3.78322 11.0638 3.88288 11.0254 3.97587C10.987 4.06886 10.9306 4.15334 10.8595 4.22448C10.7884 4.29562 10.7039 4.35201 10.6109 4.39041C10.5179 4.42881 10.4182 4.44846 10.3176 4.44825Z" fill="black"/>
<path d="M7 4.95824C7.40382 4.95824 7.79858 5.07799 8.13434 5.30234C8.47011 5.52669 8.7318 5.84557 8.88634 6.21865C9.04088 6.59174 9.08131 7.00226 9.00253 7.39833C8.92375 7.79439 8.72929 8.1582 8.44374 8.44374C8.1582 8.72929 7.79439 8.92374 7.39833 9.00253C7.00227 9.08131 6.59174 9.04087 6.21865 8.88634C5.84557 8.7318 5.52669 8.47011 5.30234 8.13434C5.07799 7.79857 4.95824 7.40382 4.95824 7C4.95882 6.45867 5.17412 5.93968 5.5569 5.5569C5.93968 5.17412 6.45867 4.95882 7 4.95824ZM7 3.9375C6.3943 3.9375 5.80219 4.11711 5.29857 4.45362C4.79494 4.79014 4.40241 5.26843 4.17062 5.82803C3.93883 6.38763 3.87818 7.0034 3.99635 7.59746C4.11451 8.19153 4.40619 8.73722 4.83449 9.16551C5.26279 9.59381 5.80847 9.88549 6.40254 10.0037C6.9966 10.1218 7.61237 10.0612 8.17197 9.82938C8.73157 9.59759 9.20987 9.20506 9.54638 8.70143C9.88289 8.19781 10.0625 7.60571 10.0625 7C10.0625 6.18777 9.73985 5.40882 9.16552 4.83449C8.59119 4.26016 7.81223 3.9375 7 3.9375Z" fill="white"/>
</svg>
