<svg width="14" height="14" viewBox="0 0 14 14" fill="none" xmlns="http://www.w3.org/2000/svg">
<g clip-path="url(#clip0)">
<path d="M13.9075 4.06848C13.9075 2.83801 13.0024 1.84816 11.884 1.84816C10.3692 1.77734 8.82427 1.75 7.24544 1.75H6.75325C5.17825 1.75 3.63059 1.77734 2.11575 1.84844C1.00012 1.84844 0.0950455 2.84375 0.0950455 4.07422C0.0266861 5.04738 -0.00229832 6.02082 -0.000657695 6.99426C-0.00339207 7.9677 0.0275975 8.94204 0.0923111 9.9173C0.0923111 11.1478 0.99739 12.1458 2.11302 12.1458C3.70442 12.2196 5.33685 12.2525 6.99661 12.2497C8.65911 12.2552 10.287 12.2206 11.8802 12.1458C12.9986 12.1458 13.9036 11.1478 13.9036 9.9173C13.9693 8.94113 13.9993 7.9677 13.9966 6.99152C14.0028 6.01809 13.9731 5.04374 13.9075 4.06848ZM5.6595 9.67668V4.30363L9.62435 6.98879L5.6595 9.67668Z" fill="white"/>
</g>
<defs>
<clipPath id="clip0">
<rect width="14" height="14" fill="white"/>
</clipPath>
</defs>
</svg>
